<svg width="60" height="60" viewBox="0 0 60 60" fill="none" xmlns="http://www.w3.org/2000/svg">
<g clip-path="url(#clip0)">
<path d="M9.60966 38.5781L3.93778 49.9219C3.66825 50.4727 3.69169 51.1172 4.01981 51.6328C4.33622 52.1484 4.91044 52.4648 5.51981 52.4648H14.0511L19.1722 59.2969C19.5003 59.7422 20.0276 60 20.5784 60C21.305 60 21.8792 59.5664 22.1487 59.0273L27.4925 48.3281C20.262 47.6484 13.887 43.9805 9.60966 38.5781ZM56.0276 49.9219L50.3558 38.5781C46.0784 43.9805 39.7034 47.6484 32.4729 48.3398L37.8167 59.0391C38.0862 59.5781 38.6604 60.0117 39.387 60.0117C39.9378 60.0117 40.4651 59.7539 40.7933 59.3086L45.9143 52.4766H54.4456C55.055 52.4766 55.6175 52.1602 55.9456 51.6445C56.2737 51.1172 56.3089 50.4727 56.0276 49.9219ZM32.93 17.2969L29.9886 12.5977L27.0472 17.2969C26.8011 17.6836 26.4261 17.9648 25.9808 18.0703L20.6018 19.418L24.1643 23.6719C24.4573 24.0234 24.5979 24.4687 24.5745 24.9258L24.1878 30.457L29.3323 28.3828C29.5784 28.2891 30.0823 28.1484 30.6448 28.3828L35.7893 30.457L35.4026 24.9258C35.3675 24.4687 35.5198 24.0234 35.8128 23.6719L39.3753 19.418L33.9847 18.0703C33.5511 17.9648 33.1643 17.6836 32.93 17.2969ZM52.4534 22.4648C52.4534 10.0781 42.3753 0 29.9886 0C17.6018 0 7.512 10.0781 7.512 22.4648C7.512 34.8516 17.5901 44.9297 29.9768 44.9297C42.3636 44.9297 52.4534 34.8633 52.4534 22.4648ZM43.8636 19.5234L38.9534 25.3828L39.4807 33.0117C39.5276 33.6211 39.2464 34.1953 38.7659 34.5586C38.2737 34.9102 37.6409 34.9922 37.0784 34.7695L29.9886 31.9102L22.8987 34.7695C22.7112 34.8516 21.9495 35.0977 21.2112 34.5586C20.719 34.207 20.4495 33.6211 20.4964 33.0117L21.0237 25.3828L16.1136 19.5234C15.7268 19.0547 15.5979 18.4219 15.7854 17.8477C15.9729 17.2734 16.4417 16.8281 17.0276 16.6875L24.4456 14.8359L28.5003 8.35547C28.8167 7.83984 29.3792 7.53516 29.9886 7.53516C30.5979 7.53516 31.1604 7.85156 31.4768 8.35547L35.5315 14.8359L42.9495 16.6875C43.5354 16.8398 44.0042 17.2734 44.1917 17.8477C44.3792 18.4219 44.2503 19.0664 43.8636 19.5234Z" fill="url(#paint0_linear)"/>
</g>
<defs>
<linearGradient id="paint0_linear" x1="29.9847" y1="60" x2="29.9847" y2="0" gradientUnits="userSpaceOnUse">
<stop stop-color="#3471FF"/>
<stop offset="1" stop-color="#C8D9FF"/>
</linearGradient>
<clipPath id="clip0">
<rect width="60" height="60" fill="white"/>
</clipPath>
</defs>
</svg>
