<svg width="190" height="260" viewBox="0 0 190 260" fill="none" xmlns="http://www.w3.org/2000/svg">
<path d="M88.2555 177.377L54.8994 255.907L41.8918 231.144L15.2471 239.627L46.8112 165.649" fill="#FE7058"/>
<path d="M54.8997 259.366C54.2694 259.365 53.6514 259.192 53.1125 258.865C52.5735 258.538 52.134 258.07 51.8416 257.512L40.1763 235.316L16.2922 242.927C15.6609 243.127 14.9854 243.142 14.3459 242.97C13.7065 242.797 13.1299 242.445 12.6847 241.955C12.2396 241.464 11.9445 240.857 11.8346 240.203C11.7247 239.55 11.8045 238.879 12.0647 238.27L43.6288 164.293C43.7975 163.862 44.0513 163.468 44.375 163.137C44.6987 162.805 45.0857 162.542 45.5132 162.362C45.9406 162.183 46.3996 162.092 46.8631 162.093C47.3266 162.095 47.785 162.19 48.2111 162.372C48.6372 162.554 49.0224 162.82 49.3437 163.154C49.6651 163.488 49.916 163.883 50.0817 164.316C50.2474 164.749 50.3244 165.211 50.3082 165.674C50.292 166.137 50.1828 166.592 49.9873 167.012L21.3983 234.064L40.8405 227.837C41.6147 227.591 42.4508 227.625 43.2022 227.934C43.9537 228.242 44.5725 228.806 44.9503 229.525L54.5745 247.832L85.08 176.021C85.245 175.586 85.4962 175.188 85.8185 174.852C86.1408 174.516 86.5276 174.248 86.9557 174.066C87.3838 173.883 87.8445 173.788 88.3101 173.787C88.7757 173.787 89.2366 173.88 89.6652 174.062C90.0939 174.243 90.4815 174.51 90.8047 174.845C91.128 175.18 91.3803 175.577 91.5465 176.012C91.7128 176.447 91.7895 176.911 91.7721 177.376C91.7547 177.841 91.6436 178.298 91.4455 178.719L58.0824 257.249C57.8226 257.846 57.3998 258.357 56.8625 258.724C56.3252 259.091 55.6953 259.299 55.045 259.325L54.8997 259.366Z" fill="#323C6B"/>
<path d="M142.071 165.719L173.697 239.627L147.053 231.144L134.045 255.907L100.682 177.377" fill="#FE7058"/>
<path d="M134.045 259.366H133.9C133.25 259.341 132.62 259.133 132.082 258.766C131.545 258.398 131.122 257.887 130.862 257.291L97.5063 178.712C97.3081 178.291 97.197 177.834 97.1797 177.369C97.1623 176.904 97.239 176.44 97.4052 176.005C97.5715 175.57 97.8238 175.173 98.147 174.838C98.4703 174.503 98.8578 174.236 99.2865 174.055C99.7152 173.873 100.176 173.78 100.642 173.78C101.107 173.781 101.568 173.876 101.996 174.059C102.424 174.242 102.811 174.509 103.133 174.845C103.456 175.181 103.707 175.579 103.872 176.014L134.377 247.832L143.988 229.532C144.365 228.813 144.984 228.249 145.736 227.941C146.487 227.632 147.323 227.598 148.097 227.844L167.54 234.071L138.888 167.109C138.528 166.265 138.517 165.312 138.859 164.461C139.201 163.609 139.867 162.928 140.711 162.567C141.556 162.206 142.508 162.196 143.36 162.538C144.212 162.88 144.893 163.546 145.254 164.39L176.873 238.298C177.135 238.907 177.217 239.579 177.108 240.234C176.999 240.888 176.704 241.497 176.258 241.989C175.813 242.48 175.235 242.833 174.595 243.005C173.954 243.178 173.278 243.163 172.646 242.961L148.769 235.351L137.103 257.512C136.811 258.07 136.371 258.538 135.832 258.865C135.293 259.192 134.675 259.365 134.045 259.366V259.366Z" fill="#323C6B"/>
<path d="M183.356 100.722L174.673 111.924C173.844 112.993 173.236 114.217 172.887 115.524C172.538 116.831 172.453 118.195 172.639 119.535L174.59 133.58C174.898 135.813 174.454 138.084 173.326 140.036C172.198 141.987 170.452 143.506 168.363 144.353L155.217 149.667C153.96 150.177 152.819 150.934 151.86 151.893C150.901 152.852 150.144 153.994 149.634 155.25L144.32 168.396C143.473 170.485 141.953 172.231 140.002 173.359C138.051 174.487 135.78 174.932 133.547 174.623L119.502 172.672C118.162 172.486 116.798 172.571 115.491 172.92C114.184 173.27 112.96 173.877 111.891 174.706L100.689 183.417C98.9107 184.806 96.7188 185.561 94.4621 185.561C92.2054 185.561 90.0135 184.806 88.2351 183.417L77.0333 174.706C75.9649 173.876 74.7409 173.268 73.4338 172.919C72.1266 172.57 70.7627 172.486 69.4225 172.672L55.384 174.623C53.1514 174.933 50.8793 174.489 48.9279 173.361C46.9764 172.233 45.4573 170.485 44.6113 168.396L39.2906 155.25C38.784 153.993 38.0291 152.85 37.0709 151.891C36.1128 150.931 34.971 150.175 33.714 149.667L20.568 144.346C18.4788 143.5 16.7318 141.981 15.6038 140.03C14.4758 138.078 14.0314 135.806 14.341 133.573L16.2921 119.535C16.4778 118.195 16.3935 116.831 16.0441 115.524C15.6948 114.217 15.0875 112.993 14.258 111.924L5.54013 100.722C4.15433 98.9424 3.40186 96.7511 3.40186 94.4953C3.40186 92.2395 4.15433 90.0482 5.54013 88.2683L14.258 77.0665C15.0882 75.9981 15.6959 74.7742 16.0453 73.467C16.3946 72.1598 16.4786 70.7959 16.2921 69.4557L14.341 55.4172C14.0314 53.1846 14.4758 50.9125 15.6038 48.9611C16.7318 47.0096 18.4788 45.4905 20.568 44.6445L33.714 39.3238C34.9713 38.8147 36.1135 38.0581 37.0727 37.099C38.0318 36.1398 38.7884 34.9976 39.2975 33.7403L44.6113 20.5943C45.4563 18.5044 46.9752 16.7566 48.9269 15.6285C50.8786 14.5003 53.1512 14.0564 55.384 14.3673L69.4225 16.3115C70.7627 16.5003 72.1272 16.4175 73.4347 16.0681C74.7422 15.7186 75.9661 15.1096 77.0333 14.2773L88.2281 5.56642C90.0066 4.17721 92.1984 3.42258 94.4551 3.42258C96.7119 3.42258 98.9038 4.17721 100.682 5.56642L111.884 14.2773C112.951 15.1094 114.175 15.7188 115.482 16.0694C116.79 16.42 118.154 16.5047 119.495 16.3184L133.54 14.3673C135.773 14.0589 138.044 14.5038 139.995 15.6317C141.947 16.7595 143.466 18.5058 144.313 20.5943L149.627 33.7403C150.137 34.997 150.894 36.1386 151.853 37.0977C152.812 38.0568 153.953 38.8137 155.21 39.3238L168.356 44.6376C170.445 45.4846 172.191 47.0039 173.319 48.9551C174.447 50.9062 174.892 53.1778 174.583 55.4103L172.597 69.4903C172.411 70.8305 172.495 72.1944 172.844 73.5016C173.194 74.8088 173.801 76.0327 174.632 77.1011L183.343 88.3029C184.725 90.0768 185.477 92.261 185.48 94.5102C185.482 96.7594 184.735 98.9453 183.356 100.722V100.722Z" fill="#FCD462"/>
<path d="M183.356 88.2959L174.673 77.0942C173.843 76.0258 173.235 74.8018 172.885 73.4946C172.536 72.1875 172.452 70.8235 172.639 69.4834L174.59 55.4449C174.898 53.2124 174.453 50.9408 173.325 48.9897C172.198 47.0385 170.451 45.5192 168.363 44.6721L155.217 39.3515C153.96 38.8439 152.818 38.0886 151.858 37.1305C150.899 36.1725 150.142 35.0313 149.633 33.7748L144.319 20.6289C143.474 18.539 141.956 16.7912 140.004 15.663C138.052 14.5349 135.779 14.091 133.547 14.4019L119.501 16.3461C118.161 16.5353 116.797 16.4527 115.489 16.1032C114.181 15.7538 112.958 15.1445 111.891 14.3119L100.689 5.60099C98.9104 4.21178 96.7185 3.45715 94.4618 3.45715C92.2051 3.45715 90.0132 4.21178 88.2347 5.60099L77.0399 14.3119C75.9727 15.1442 74.7488 15.7532 73.4413 16.1027C72.1338 16.4521 70.7693 16.5349 69.4291 16.3461L55.3906 14.4019C53.158 14.0922 50.8859 14.5366 48.9345 15.6646C46.983 16.7926 45.4639 18.5397 44.6179 20.6289L41.3037 28.8209L52.7061 30.4053C54.0463 30.5918 55.4102 30.5078 56.7173 30.1585C58.0245 29.8091 59.2485 29.2014 60.3169 28.3712L71.5186 19.6602C73.297 18.271 75.489 17.5164 77.7457 17.5164C80.0024 17.5164 82.1942 18.271 83.9727 19.6602L95.1744 28.3712C96.2432 29.2007 97.4672 29.808 98.7743 30.1573C100.081 30.5067 101.445 30.591 102.785 30.4053L116.831 28.4542C119.063 28.1458 121.335 28.5907 123.286 29.7186C125.237 30.8464 126.756 32.5928 127.603 34.6812L132.917 47.8272C133.427 49.0839 134.184 50.2255 135.143 51.1846C136.102 52.1436 137.244 52.9006 138.501 53.4107L151.647 58.7245C153.735 59.5715 155.481 61.0908 156.609 63.042C157.737 64.9931 158.182 67.2647 157.874 69.4972L155.923 83.5426C155.737 84.8828 155.821 86.2465 156.171 87.5536C156.52 88.8606 157.127 90.0846 157.957 91.1534L166.668 102.355C168.057 104.134 168.811 106.325 168.811 108.582C168.811 110.839 168.057 113.031 166.668 114.809L157.957 126.011C157.126 127.079 156.519 128.303 156.169 129.611C155.82 130.918 155.736 132.282 155.923 133.622L157.874 147.66C157.88 147.99 157.868 148.321 157.839 148.65L168.37 144.388C170.458 143.541 172.204 142.021 173.332 140.07C174.46 138.119 174.905 135.847 174.597 133.615L172.646 119.569C172.46 118.229 172.544 116.866 172.894 115.558C173.243 114.251 173.85 113.027 174.68 111.959L183.391 100.757C184.777 98.974 185.526 96.7787 185.52 94.5204C185.514 92.2622 184.752 90.0711 183.356 88.2959V88.2959Z" fill="#F7BE56"/>
<path d="M94.4689 188.987C91.4607 188.984 88.5393 187.978 86.1662 186.129L74.9645 177.412C74.2582 176.868 73.4511 176.471 72.5901 176.242C71.7291 176.012 70.8312 175.956 69.9483 176.076L55.9098 178.02C52.915 178.434 49.868 177.837 47.2504 176.324C44.6328 174.812 42.594 172.47 41.4562 169.669L36.1424 156.523C35.806 155.697 35.3076 154.946 34.6767 154.315C34.0457 153.684 33.2949 153.186 32.4685 152.849L19.3226 147.536C16.5188 146.402 14.1742 144.364 12.6612 141.745C11.1482 139.126 10.5534 136.077 10.9714 133.082L12.9156 119.037C13.0346 118.156 12.9778 117.26 12.7486 116.402C12.5194 115.543 12.1223 114.739 11.5803 114.034L2.86937 102.833C1.00998 100.451 0 97.5166 0 94.4953C0 91.4739 1.00998 88.5393 2.86937 86.158L11.5803 74.9562C12.1237 74.2513 12.5222 73.4457 12.7526 72.5859C12.983 71.7261 13.0407 70.8292 12.9225 69.9469L10.9714 55.9084C10.5543 52.9133 11.1503 49.8646 12.6647 47.247C14.1791 44.6294 16.525 42.5931 19.3295 41.4618L32.4754 36.1411C33.3019 35.8046 34.0526 35.3063 34.6836 34.6753C35.3145 34.0444 35.8129 33.2936 36.1494 32.4672L41.4631 19.3212C42.5942 16.5139 44.6328 14.1663 47.2537 12.6527C49.8746 11.1391 52.9268 10.5467 55.9236 10.9701L69.9552 12.9212C70.8375 13.0429 71.7352 12.9868 72.5955 12.7563C73.4558 12.5258 74.2613 12.1255 74.9645 11.5789L86.1731 2.8611C88.5554 1.00682 91.4881 0 94.507 0C97.5259 0 100.459 1.00682 102.841 2.8611L114.043 11.5789C115.471 12.6683 117.27 13.1506 119.052 12.9212L133.09 10.9701C136.086 10.5496 139.136 11.1433 141.755 12.6566C144.374 14.17 146.412 16.516 147.544 19.3212L152.872 32.4672C153.206 33.2938 153.703 34.0448 154.333 34.6759C154.962 35.307 155.713 35.8052 156.539 36.1411L169.684 41.4618C172.49 42.5911 174.838 44.627 176.352 47.2451C177.867 49.8633 178.462 52.913 178.043 55.9084L176.091 69.9539C175.972 70.8361 176.029 71.7333 176.26 72.5932C176.49 73.4532 176.889 74.2588 177.434 74.9631L186.145 86.158C187.999 88.5413 189.007 91.4752 189.007 94.4953C189.007 97.5153 187.999 100.449 186.145 102.833L177.434 114.034C176.889 114.737 176.49 115.542 176.26 116.401C176.03 117.259 175.972 118.155 176.091 119.037L178.043 133.082C178.47 136.092 177.872 139.158 176.346 141.787C174.82 144.416 172.454 146.455 169.629 147.577L156.483 152.898C155.657 153.232 154.907 153.729 154.277 154.359C153.647 154.989 153.151 155.739 152.816 156.565L147.496 169.711C146.359 172.507 144.321 174.844 141.705 176.349C139.089 177.855 136.044 178.443 133.056 178.02L119.017 176.069C118.136 175.951 117.239 176.009 116.38 176.238C115.52 176.467 114.714 176.863 114.008 177.405L102.806 186.122C100.425 187.982 97.4899 188.99 94.4689 188.987V188.987ZM70.8201 169.095C73.8458 169.095 76.7858 170.1 79.1781 171.953L90.3799 180.67C91.5502 181.58 92.9902 182.074 94.4724 182.074C95.9546 182.074 97.3946 181.58 98.5649 180.67L109.767 171.959C111.203 170.855 112.843 170.045 114.593 169.577C116.344 169.109 118.169 168.992 119.965 169.233L134.004 171.185C135.473 171.389 136.969 171.096 138.253 170.353C139.536 169.609 140.535 168.458 141.089 167.082L146.409 153.936C147.099 152.251 148.118 150.722 149.407 149.437C150.696 148.153 152.229 147.139 153.916 146.456L167.062 141.136C168.439 140.583 169.59 139.584 170.333 138.3C171.075 137.016 171.366 135.52 171.158 134.051L169.214 120.005C168.966 118.209 169.08 116.381 169.549 114.63C170.018 112.878 170.834 111.238 171.947 109.807L180.658 98.5982C181.568 97.4294 182.062 95.9904 182.062 94.5091C182.062 93.0278 181.568 91.5888 180.658 90.42L171.905 79.2252C170.792 77.791 169.977 76.1487 169.508 74.3949C169.039 72.6412 168.925 70.8113 169.173 69.0129L171.124 54.9744C171.329 53.504 171.036 52.0074 170.293 50.7223C169.549 49.4373 168.398 48.4377 167.021 47.8825L153.916 42.5688C152.23 41.883 150.699 40.8667 149.412 39.5798C148.125 38.2929 147.109 36.7614 146.423 35.0756L141.102 21.9296C140.542 20.557 139.541 19.4097 138.257 18.6682C136.973 17.9267 135.48 17.6331 134.011 17.8336L119.972 19.7848C118.175 20.0271 116.347 19.9102 114.595 19.4411C112.844 18.972 111.202 18.1599 109.767 17.0518L98.5649 8.34781C97.396 7.43495 95.9555 6.93908 94.4724 6.93908C92.9893 6.93908 91.5487 7.43495 90.3799 8.34781L79.192 17.0656C77.7596 18.1772 76.1197 18.9916 74.3684 19.4609C72.6171 19.9302 70.7897 20.045 68.9935 19.7986L54.9481 17.8475C53.4794 17.6494 51.9864 17.944 50.7031 18.6852C49.4198 19.4264 48.4185 20.5723 47.8562 21.9435L42.5424 35.0894C41.8556 36.7746 40.839 38.3056 39.5522 39.5924C38.2654 40.8792 36.7345 41.8958 35.0493 42.5826L21.9033 47.8963C20.5279 48.4536 19.3777 49.4536 18.6346 50.738C17.8914 52.0225 17.5979 53.5182 17.8004 54.9882L19.7515 69.0336C19.9971 70.8299 19.8819 72.6571 19.4126 74.4083C18.9434 76.1594 18.1295 77.7994 17.0186 79.2321L8.30763 90.4339C7.39986 91.6036 6.90715 93.0423 6.90715 94.5229C6.90715 96.0036 7.39986 97.4422 8.30763 98.612L17.0186 109.814C18.131 111.248 18.9453 112.891 19.4135 114.644C19.8817 116.398 19.9942 118.228 19.7446 120.026L17.8004 134.058C17.5962 135.527 17.8882 137.023 18.6301 138.307C19.3721 139.592 20.5216 140.592 21.8964 141.15L35.0423 146.463C36.7237 147.15 38.2512 148.165 39.5354 149.449C40.8197 150.734 41.8349 152.261 42.5217 153.943L47.8423 167.089C48.3934 168.467 49.3914 169.619 50.6763 170.362C51.9611 171.105 53.4582 171.395 54.9273 171.185L68.9727 169.24C69.5845 169.15 70.2017 169.102 70.8201 169.095V169.095Z" fill="#323C6B"/>
<path d="M94.4687 56.1783L106.923 81.4185L134.771 85.4592L114.624 105.102L119.377 132.84L94.4687 119.742L69.5606 132.84L74.3208 105.102L54.166 85.4592L82.0147 81.4185L94.4687 56.1783Z" fill="white"/>
</svg>
