<svg width="60" height="60" viewBox="0 0 60 60" fill="none" xmlns="http://www.w3.org/2000/svg">
<path d="M58.0999 30.0264C58.0999 30.6511 57.7479 31.2229 57.1849 31.5044L32.6658 43.7068C31.8213 44.1291 30.8975 44.3402 29.9738 44.3402C29.05 44.3402 28.1262 44.1291 27.2817 43.7068L2.76261 31.5044C2.19956 31.2229 1.84766 30.6511 1.84766 30.0264C1.84766 29.4018 2.19956 28.8299 2.76261 28.5484L9.96789 24.959L25.8125 32.8505C27.0969 33.4927 28.5309 33.827 29.9738 33.827C31.4166 33.827 32.8506 33.4927 34.135 32.8505L49.9796 24.959L57.1849 28.5484C57.7392 28.8299 58.0999 29.4018 58.0999 30.0264ZM57.1849 42.3607L49.9796 38.7713L34.135 46.6628C32.8506 47.305 31.4166 47.6393 29.9738 47.6393C28.5309 47.6393 27.0969 47.305 25.8125 46.6628L9.96789 38.7713L2.76261 42.3607C2.19956 42.6423 1.84766 43.2141 1.84766 43.8387C1.84766 44.4634 2.19956 45.0352 2.76261 45.3167L27.2817 57.5279C28.1262 57.9502 29.05 58.1613 29.9738 58.1613C30.8975 58.1613 31.8213 57.9502 32.6658 57.5279L57.1849 45.3167C57.7479 45.0352 58.0999 44.4634 58.0999 43.8387C58.0999 43.2141 57.7392 42.6423 57.1849 42.3607ZM2.76261 17.6921L27.2817 29.9033C28.1262 30.3255 29.05 30.5367 29.9738 30.5367C30.8975 30.5367 31.8213 30.3255 32.6658 29.9033L57.1849 17.6921C57.7479 17.4106 58.0999 16.8387 58.0999 16.2141C58.0999 15.5895 57.7479 15.0176 57.1849 14.7361L32.6658 2.53375C30.9767 1.69798 28.962 1.69798 27.2817 2.53375L2.76261 14.7449C2.19956 15.0176 1.84766 15.5895 1.84766 16.2141C1.84766 16.8387 2.19956 17.4106 2.76261 17.6921Z" fill="url(#paint0_linear)"/>
<defs>
<linearGradient id="paint0_linear" x1="29.9709" y1="58.1508" x2="29.9709" y2="1.9043" gradientUnits="userSpaceOnUse">
<stop offset="1.70489e-07" stop-color="#3471FF"/>
<stop offset="1" stop-color="#C8D9FF"/>
</linearGradient>
</defs>
</svg>
