<?xml version="1.0" encoding="utf-8"?>
<!-- Generator: Adobe Illustrator 24.2.1, SVG Export Plug-In . SVG Version: 6.00 Build 0)  -->
<svg version="1.1" id="Layer_1" xmlns="http://www.w3.org/2000/svg" xmlns:xlink="http://www.w3.org/1999/xlink" x="0px" y="0px"
	 viewBox="0 0 1080 1080" style="enable-background:new 0 0 1080 1080;" xml:space="preserve">
<g>
	<g>
		<path d="M173.7,229.1c-2.9,1.5-5.7,2.3-8.2,2.3l-0.9-2.8c2.4-0.1,4.9-0.8,7.6-2.1c2.7-1.3,5-3.1,7-5.4c3-3.3,4.6-6.3,4.8-9.1
			c0.3-2.8-0.6-5.1-2.6-6.9c-1.6-1.4-3.2-2-4.9-2c-1.7,0.1-3.4,0.5-5.1,1.4c-1.7,0.9-3.8,2.2-6.3,4c-2.9,2-5.3,3.5-7.3,4.5
			c-2,1-4.1,1.5-6.3,1.4c-2.2,0-4.3-1-6.4-2.8c-1.7-1.5-2.8-3.3-3.4-5.4s-0.5-4.5,0.3-7c0.8-2.6,2.4-5.2,4.9-7.9
			c1.7-1.9,3.7-3.5,5.9-4.9c2.2-1.3,4.4-2.3,6.6-2.8l1.2,2.7c-2.2,0.5-4.3,1.4-6.3,2.6c-2,1.2-3.7,2.6-5.2,4.2
			c-2.9,3.2-4.4,6.2-4.6,9s0.7,5.1,2.8,6.9c1.6,1.4,3.2,2,4.9,2c1.7-0.1,3.4-0.5,5.1-1.4c1.7-0.9,3.8-2.2,6.4-4
			c2.9-2,5.3-3.4,7.3-4.4c2-1,4-1.5,6.2-1.5c2.2,0,4.3,0.9,6.3,2.7c1.7,1.5,2.8,3.3,3.4,5.4c0.6,2.1,0.4,4.5-0.4,7.1
			c-0.9,2.6-2.5,5.3-5,8C179.2,225.5,176.6,227.6,173.7,229.1z"/>
		<path d="M243.6,107.2l27.5,37.3l-2.7,2l-13.1-17.7L230.2,147l13.1,17.7l-2.7,2l-27.5-37.3l2.7-2l12.7,17.1l25.1-18.3l-12.7-17.1
			L243.6,107.2z"/>
		<path d="M352.8,86.7l-24.7,10.8l-0.1,14.3l-3.3,1.5l0.8-50.9l3.1-1.4l38.4,33.7l-3.3,1.5L352.8,86.7z M350.5,84.6l-22.1-19.5
			l-0.3,29.3L350.5,84.6z"/>
		<path d="M428.7,71.2c-3.9-2.7-6.5-7.2-7.8-13.6l-5.4-26.1l3.3-0.7l5.4,25.9c1.1,5.6,3.3,9.5,6.4,11.7c3.1,2.2,7.1,2.9,12,1.9
			c4.8-1,8.2-3.1,10.2-6.4c2-3.3,2.4-7.7,1.3-13.3l-5.4-25.9l3.3-0.7l5.4,26.1c1.3,6.4,0.7,11.6-1.8,15.5c-2.5,4-6.7,6.5-12.5,7.7
			S432.6,73.9,428.7,71.2z"/>
		<path d="M569.1,17.6l-0.9,46.2l-2.8-0.1l-31-40.7l-0.7,40.1l-3.4-0.1l0.9-46.2l2.9,0.1L565,57.7l0.7-40.1L569.1,17.6z"/>
		<path d="M747.1,109.1l15.5-36.4l-31.1,23.2l-1.5-0.6L725.1,57l-15.5,36.3l-3.1-1.3l18.2-42.5l2.6,1.1l5.1,41l33.2-24.8l2.6,1.1
			l-18.1,42.6L747.1,109.1z"/>
		<path d="M841.2,151.4l-21.9-15.7l-12.5,7.1l-3-2.1l44.7-24.9l2.7,2l-10,49.9l-3-2.1L841.2,151.4z M841.9,148.4l5.9-28.7
			l-25.6,14.5L841.9,148.4z"/>
		<path d="M913.4,204.3l-15-0.6l-9.1,8.1l-2.3-2.5l34.5-31l2.3,2.5l-22.2,19.9l41.7,1.5l2.8,3l-29.4-1l-4.2,33l-2.8-3L913.4,204.3z"
			/>
	</g>
	<g>
		<path d="M84.1,378.5l-18.9-6.3l-7.9,23.3l-2.9-1l7.9-23.3l-19.5-6.5l1.1-3.2l44.1,14.8l-9.9,29.3l-2.9-1L84.1,378.5z"/>
		<path d="M22.1,467.8c3.8-2.8,8.9-3.9,15.4-3.1l26.6,3l-0.4,3.3l-26.5-3c-5.7-0.6-10.1,0.2-13.2,2.4s-5,5.8-5.5,10.7
			c-0.6,4.9,0.4,8.7,2.9,11.6c2.5,2.9,6.6,4.7,12.3,5.3l26.5,3l-0.4,3.3l-26.6-3c-6.5-0.7-11.3-2.9-14.3-6.5
			c-3-3.6-4.2-8.3-3.5-14.2C16.1,474.9,18.3,470.6,22.1,467.8z"/>
		<path d="M59.8,573.5l0.3,3.4l-43.3,3.9l2.4,26.5l-3,0.3l-2.7-29.8L59.8,573.5z"/>
		<path d="M74.9,664.4l1,3.2l-41.8,12.1l7.5,25.5l-2.9,0.9l-8.5-28.8L74.9,664.4z"/>
		<path d="M108.8,840.8c-0.9-3.2-1.1-6-0.6-8.5l2.9-0.2c-0.4,2.3-0.3,4.9,0.5,7.8c0.8,2.9,2,5.5,3.8,8c2.6,3.6,5.3,5.7,8,6.6
			c2.7,0.8,5.1,0.5,7.3-1.1c1.7-1.2,2.7-2.7,3-4.4c0.3-1.7,0.2-3.4-0.3-5.2c-0.5-1.8-1.4-4.1-2.6-7c-1.3-3.2-2.3-5.9-2.9-8
			c-0.6-2.1-0.6-4.2-0.1-6.4c0.5-2.1,1.9-4,4.1-5.6c1.8-1.3,3.9-2.1,6.1-2.2c2.2-0.1,4.5,0.4,6.9,1.8c2.3,1.3,4.6,3.5,6.8,6.4
			c1.5,2.1,2.7,4.3,3.6,6.7c0.9,2.4,1.3,4.8,1.3,7l-3,0.6c-0.1-2.2-0.5-4.5-1.3-6.6c-0.8-2.2-1.8-4.2-3.1-5.9
			c-2.5-3.5-5.2-5.6-7.9-6.3c-2.7-0.8-5.2-0.3-7.4,1.3c-1.7,1.2-2.7,2.7-3,4.4c-0.3,1.7-0.2,3.4,0.3,5.2c0.5,1.8,1.4,4.2,2.6,7.1
			c1.3,3.2,2.3,5.9,2.8,8c0.6,2.1,0.6,4.2,0.1,6.3c-0.5,2.1-1.8,4-4,5.6c-1.8,1.3-3.9,2-6.1,2.1c-2.2,0.1-4.5-0.5-6.9-1.9
			c-2.4-1.4-4.7-3.5-6.8-6.5C111.1,846.9,109.7,843.9,108.8,840.8z"/>
		<path d="M208.9,891.7l-12.3-11.3l2.1-2.2l27,25l-2.1,2.2L211.4,894l-29.7,31.6l-2.5-2.3L208.9,891.7z"/>
		<path d="M280.5,982.4l-23-14.1l-11.9,7.9l-3.1-1.9l42.8-28l2.9,1.8l-6.4,50.5l-3.1-1.9L280.5,982.4z M281,979.3l3.8-29.1
			l-24.5,16.3L281,979.3z"/>
		<path d="M354,1028.5c-2.7-3.1-4.5-6.7-5.3-10.8c-0.8-4.1-0.4-8.2,1.1-12.4c1.5-4.2,3.9-7.6,7.1-10.2c3.2-2.6,6.9-4.3,11-5
			c4.1-0.7,8.3-0.2,12.6,1.3c3.2,1.1,5.9,2.7,8.2,4.7s4,4.3,5.2,6.9l-2.7,1.3c-2.3-4.7-6.1-8-11.6-10c-3.7-1.3-7.3-1.7-10.9-1.1
			c-3.6,0.6-6.8,2-9.6,4.3c-2.8,2.3-4.8,5.3-6.1,8.9c-1.3,3.6-1.6,7.2-1,10.7c0.6,3.5,2.2,6.7,4.6,9.4c2.4,2.7,5.4,4.8,9.1,6.1
			c5.4,1.9,10.5,1.8,15.4-0.4l1.3,2.8c-2.6,1.3-5.4,2-8.5,2.1c-3.1,0.1-6.2-0.5-9.3-1.6C360.3,1034,356.8,1031.7,354,1028.5z"/>
		<path d="M469.9,1037.3l-11.8,9.1l-1.7,12l-3.4-0.5l6.3-45.8l3.4,0.5l-4.1,29.4l32.9-25.5l4.1,0.6l-23.2,18l18.2,27.9l-4.1-0.6
			L469.9,1037.3z"/>
		<path d="M631.1,1010.6l17.9-4.1c4.7-1.1,9.1-1.1,13.2,0c4.1,1.1,7.6,3.1,10.4,6c2.8,2.9,4.8,6.6,5.8,10.9c1,4.3,0.9,8.4-0.3,12.3
			c-1.2,3.9-3.4,7.2-6.6,10c-3.2,2.8-7.2,4.7-11.9,5.8l-18,4.1L631.1,1010.6z M658.6,1048.5c4.2-1,7.7-2.6,10.5-5s4.7-5.3,5.8-8.6
			c1-3.4,1.1-6.9,0.2-10.8c-0.9-3.8-2.6-7-5-9.6c-2.4-2.6-5.4-4.3-9-5.2c-3.6-0.9-7.5-0.9-11.7,0.1l-14.4,3.3l9.2,39.1L658.6,1048.5
			z"/>
		<path d="M782.2,1003.7l1.3,2.7l-29,13.7l-20-41.7l28.1-13.3l1.3,2.7l-25,11.9l7.9,16.4l22.4-10.6l1.3,2.7L748,998.9l8.2,17.1
			L782.2,1003.7z"/>
		<path d="M848.8,908.3l11.6,49.3l-2.7,2l-44.7-24.4l3-2.2l40.5,22.1L846,910.4L848.8,908.3z"/>
		<path d="M947.1,870.6l2.3,2l-21.2,24l-35-30.5l20.5-23.2l2.3,2l-18.3,20.7l13.8,12l16.4-18.5l2.3,2l-16.4,18.5l14.4,12.5
			L947.1,870.6z"/>
		<path d="M952.4,788.3l1.7-2.9l37.7,21.5l13.4-23.1l2.7,1.5l-15,26L952.4,788.3z"/>
		<path d="M1036.4,712.9c-3.1,2.8-6.7,4.7-10.7,5.6c-4.1,0.9-8.2,0.7-12.4-0.7c-4.2-1.3-7.7-3.6-10.5-6.7c-2.8-3.1-4.6-6.7-5.4-10.8
			c-0.8-4.1-0.5-8.3,0.9-12.6s3.6-7.9,6.7-10.8c3.1-2.9,6.6-4.7,10.7-5.6c4.1-0.9,8.2-0.7,12.5,0.7c4.3,1.4,7.8,3.6,10.6,6.7
			c2.8,3.1,4.6,6.7,5.4,10.8c0.8,4.1,0.5,8.3-0.9,12.6C1041.7,706.5,1039.5,710.1,1036.4,712.9z M1040.9,690.4
			c-0.7-3.5-2.3-6.6-4.7-9.3c-2.4-2.7-5.5-4.6-9.1-5.8c-3.7-1.2-7.3-1.4-10.8-0.6c-3.5,0.8-6.6,2.4-9.3,4.8
			c-2.7,2.4-4.6,5.5-5.8,9.2c-1.2,3.7-1.4,7.3-0.7,10.8c0.7,3.5,2.3,6.6,4.7,9.3c2.4,2.7,5.5,4.6,9.1,5.8c3.7,1.2,7.3,1.4,10.8,0.6
			c3.5-0.8,6.6-2.4,9.3-4.8c2.7-2.5,4.6-5.5,5.8-9.2C1041.3,697.5,1041.6,693.9,1040.9,690.4z"/>
		<path d="M1025.1,571.7c3.1-3,7.1-4.3,12-3.9c4.9,0.4,8.5,2.4,11,6c2.5,3.5,3.4,8.2,2.9,14l-1.2,13.1l15.2,1.4l-0.3,3.4l-46.4-4.3
			l1.6-16.5C1020.2,579.1,1022,574.7,1025.1,571.7z M1045.6,576c-1.9-2.8-4.9-4.4-8.9-4.7c-4-0.4-7.2,0.6-9.7,3
			c-2.4,2.4-3.9,6-4.3,10.9l-1.2,13.1l25.1,2.3l1.2-13.1C1048.3,582.6,1047.5,578.8,1045.6,576z"/>
		<path d="M1060,465.2l3-0.3l3.5,31.7l-46.3,5.1l-3.4-30.7l3-0.3l3.1,27.4l18.3-2l-2.7-24.5l3-0.3l2.7,24.5l19-2.1L1060,465.2z"/>
		<path d="M1036.5,361l-11.3,15.3c0.7,1.5,1.3,2.9,1.7,4.2l4.2,12.5l14.5-4.7l1.1,3.2l-44.2,14.5l-5.2-15.7
			c-1.8-5.5-2-10.3-0.4-14.3c1.6-4,4.7-6.8,9.4-8.3c3.5-1.1,6.7-1.2,9.7-0.2c3,1,5.5,3,7.6,6l11.8-16L1036.5,361z M1024.1,381.4
			c-1.6-4.7-3.8-7.9-6.7-9.7c-2.9-1.8-6.3-2-10.1-0.8c-3.8,1.3-6.4,3.5-7.6,6.6c-1.3,3.1-1.1,7.1,0.4,11.7l4.2,12.5l24-7.9
			L1024.1,381.4z"/>
	</g>
</g>
<g>
	<g>
		<polygon points="371.7,332.7 537.5,237.3 662,310.1 696,290.6 537.7,196.7 336.6,312.5 335.7,543.8 520,649.4 520,819.9 
			335.5,712.1 334.4,752.8 555.3,880.9 555.3,629.2 371,523.6 		"/>
		<path d="M559.4,888.1L330.2,755.2l1.3-50.2l184.3,107.8V651.8L331.5,546.2l0.9-236.1l205.4-118.2l166.4,98.7L662,314.9
			l-124.5-72.8l-161.6,93l-0.7,186.2l184.2,105.6V888.1z M338.6,750.5l212.5,123.2V631.6L366.9,526l0.7-195.7l170-97.8L662,305.3
			l25.7-14.8l-150.1-89l-197,113.4l-0.9,226.5L524.1,647v180.1l-184.7-108L338.6,750.5z"/>
	</g>
	<g>
		<polygon points="545.7,438.3 419,364.5 418.7,409.4 545.5,481 709.3,384.9 706.6,555.3 741.7,591.8 745.5,324 		"/>
		<path d="M745.7,602l-43.3-45.1l2.6-164.7l-159.5,93.6l-131.1-74l0.4-54.4l130.8,76.2l204.1-116.6L745.7,602z M710.8,553.6l26.9,28
			l3.6-250.4L545.7,443l-122.6-71.3l-0.3,35.3l122.6,69.3l168.1-98.6L710.8,553.6z"/>
	</g>
</g>
</svg>
