<svg width="1920" height="2214" viewBox="0 0 1920 2214" fill="none" xmlns="http://www.w3.org/2000/svg">
<rect width="1920" height="1393" fill="url(#paint0_linear)"/>
<rect y="621" width="1920" height="1593" fill="url(#paint1_linear)"/>
<circle cx="149" cy="140" r="53" fill="#ABC4FF"/>
<circle cx="288" cy="399" r="4" fill="#ABC4FF"/>
<circle cx="320" cy="399" r="4" fill="#ABC4FF"/>
<circle cx="353" cy="399" r="4" fill="#ABC4FF"/>
<circle cx="288" cy="432" r="4" fill="#ABC4FF"/>
<circle cx="320" cy="432" r="4" fill="#ABC4FF"/>
<circle cx="353" cy="432" r="4" fill="#ABC4FF"/>
<circle cx="288" cy="464" r="4" fill="#ABC4FF"/>
<circle cx="320" cy="464" r="4" fill="#ABC4FF"/>
<circle cx="353" cy="464" r="4" fill="#ABC4FF"/>
<circle cx="385" cy="399" r="4" fill="#ABC4FF"/>
<circle cx="418" cy="399" r="4" fill="#ABC4FF"/>
<circle cx="450" cy="399" r="4" fill="#ABC4FF"/>
<circle cx="385" cy="432" r="4" fill="#ABC4FF"/>
<circle cx="418" cy="432" r="4" fill="#ABC4FF"/>
<circle cx="450" cy="432" r="4" fill="#ABC4FF"/>
<circle cx="385" cy="464" r="4" fill="#ABC4FF"/>
<circle cx="418" cy="464" r="4" fill="#ABC4FF"/>
<circle cx="450" cy="464" r="4" fill="#ABC4FF"/>
<circle cx="450" cy="302" r="4" fill="#ABC4FF"/>
<circle cx="450" cy="334" r="4" fill="#ABC4FF"/>
<circle cx="450" cy="367" r="4" fill="#ABC4FF"/>
<circle cx="288" cy="302" r="4" fill="#ABC4FF"/>
<circle cx="320" cy="302" r="4" fill="#ABC4FF"/>
<circle cx="353" cy="302" r="4" fill="#ABC4FF"/>
<circle cx="288" cy="334" r="4" fill="#ABC4FF"/>
<circle cx="320" cy="334" r="4" fill="#ABC4FF"/>
<circle cx="353" cy="334" r="4" fill="#ABC4FF"/>
<circle cx="288" cy="367" r="4" fill="#ABC4FF"/>
<circle cx="320" cy="367" r="4" fill="#ABC4FF"/>
<circle cx="353" cy="367" r="4" fill="#ABC4FF"/>
<circle cx="385" cy="302" r="4" fill="#ABC4FF"/>
<circle cx="418" cy="302" r="4" fill="#ABC4FF"/>
<circle cx="385" cy="334" r="4" fill="#ABC4FF"/>
<circle cx="418" cy="334" r="4" fill="#ABC4FF"/>
<circle cx="385" cy="367" r="4" fill="#ABC4FF"/>
<circle cx="418" cy="367" r="4" fill="#ABC4FF"/>
<rect x="237" y="248" width="196" height="196" fill="#C0D3FF" fill-opacity="0.5"/>
<circle cx="1530" cy="976" r="3" fill="#A3B6B4"/>
<circle cx="1554" cy="976" r="3" fill="#A3B6B4"/>
<circle cx="1579" cy="976" r="3" fill="#A3B6B4"/>
<circle cx="1530" cy="1001" r="3" fill="#A3B6B4"/>
<circle cx="1554" cy="1001" r="3" fill="#A3B6B4"/>
<circle cx="1579" cy="1001" r="3" fill="#A3B6B4"/>
<circle cx="1530" cy="1025" r="3" fill="#A3B6B4"/>
<circle cx="1554" cy="1025" r="3" fill="#A3B6B4"/>
<circle cx="1579" cy="1025" r="3" fill="#A3B6B4"/>
<circle cx="1603" cy="976" r="3" fill="#A3B6B4"/>
<circle cx="1628" cy="976" r="3" fill="#A3B6B4"/>
<circle cx="1652" cy="976" r="3" fill="#A3B6B4"/>
<circle cx="1603" cy="1001" r="3" fill="#A3B6B4"/>
<circle cx="1628" cy="1001" r="3" fill="#A3B6B4"/>
<circle cx="1652" cy="1001" r="3" fill="#A3B6B4"/>
<circle cx="1603" cy="1025" r="3" fill="#A3B6B4"/>
<circle cx="1628" cy="1025" r="3" fill="#A3B6B4"/>
<circle cx="1652" cy="1025" r="3" fill="#A3B6B4"/>
<circle cx="1530" cy="903" r="3" fill="#A3B6B4"/>
<circle cx="1554" cy="903" r="3" fill="#A3B6B4"/>
<circle cx="1579" cy="903" r="3" fill="#A3B6B4"/>
<circle cx="1530" cy="927" r="3" fill="#A3B6B4"/>
<circle cx="1554" cy="927" r="3" fill="#A3B6B4"/>
<circle cx="1579" cy="927" r="3" fill="#A3B6B4"/>
<circle cx="1530" cy="952" r="3" fill="#A3B6B4"/>
<circle cx="1554" cy="952" r="3" fill="#A3B6B4"/>
<circle cx="1579" cy="952" r="3" fill="#A3B6B4"/>
<circle cx="1603" cy="903" r="3" fill="#A3B6B4"/>
<circle cx="1628" cy="903" r="3" fill="#A3B6B4"/>
<circle cx="1652" cy="903" r="3" fill="#A3B6B4"/>
<circle cx="1603" cy="927" r="3" fill="#A3B6B4"/>
<circle cx="1628" cy="927" r="3" fill="#A3B6B4"/>
<circle cx="1652" cy="927" r="3" fill="#A3B6B4"/>
<circle cx="1603" cy="952" r="3" fill="#A3B6B4"/>
<circle cx="1628" cy="952" r="3" fill="#A3B6B4"/>
<circle cx="1652" cy="952" r="3" fill="#A3B6B4"/>
<rect x="1541" y="914" width="154" height="154" fill="#D9F3F0" fill-opacity="0.5"/>
<defs>
<linearGradient id="paint0_linear" x1="960" y1="0" x2="960" y2="1393" gradientUnits="userSpaceOnUse">
<stop stop-color="#E2EAFF"/>
<stop offset="1" stop-color="#FBFCFF" stop-opacity="0"/>
</linearGradient>
<linearGradient id="paint1_linear" x1="960" y1="621" x2="960" y2="2214" gradientUnits="userSpaceOnUse">
<stop stop-color="#F2FBFA" stop-opacity="0"/>
<stop offset="0.503125" stop-color="#F2FBFA"/>
<stop offset="0.9998" stop-color="#F2FBFA" stop-opacity="0.0247736"/>
<stop offset="0.9999" stop-color="#F2FBFA" stop-opacity="0.01"/>
<stop offset="1" stop-color="#F2FBFA" stop-opacity="0"/>
</linearGradient>
</defs>
</svg>
