<svg width="60" height="60" viewBox="0 0 60 60" fill="none" xmlns="http://www.w3.org/2000/svg">
<g clip-path="url(#clip0)">
<path d="M55.3309 16.6419C55.3828 13.8924 54.781 11.1119 54.2934 8.37279C54.1273 7.42865 53.785 6.51563 53.4426 5.62336C53.1936 4.94897 52.4362 4.52358 51.7514 4.66884C51.3053 4.76221 50.9006 4.85559 50.5168 4.98009C46.4393 6.3185 42.6627 8.28979 39.0314 10.562C38.5437 10.8629 37.8382 10.977 37.2468 10.9355C35.8358 10.8317 34.4455 10.479 33.0345 10.4167C29.5484 10.2507 26.0727 10.3545 22.6177 10.9666C22.1405 11.0496 21.5076 10.9666 21.103 10.7072C17.15 8.14454 13.031 5.95536 8.3933 4.72071C7.69816 4.53396 6.98227 4.63771 6.80589 4.90747C6.70213 5.07347 6.59838 5.24985 6.54651 5.4366C6.04849 7.19002 5.45711 8.94343 5.1666 10.7383C4.82422 12.886 4.48183 15.0856 4.64784 17.2332C4.75159 18.582 4.37808 19.4017 3.64144 20.3458C1.18251 23.531 0.0723565 27.1727 -0.000270121 31.1672C-0.0625216 34.5806 0.393989 37.9111 1.43151 41.1793C3.0293 46.1801 6.10037 49.936 10.7381 52.3845C14.5458 54.3973 18.6959 55.1651 22.9394 55.3207C26.7678 55.4556 30.6067 55.3415 34.4351 55.3622C38.274 55.383 42.0609 55.0406 45.7338 53.8474C49.4066 52.6543 52.5918 50.7141 55.0611 47.6742C58.6302 43.2855 59.7404 38.1082 59.9686 32.6301C60.145 28.4385 59.2942 24.5063 56.8353 21.0825C55.8496 19.6714 55.2998 18.4783 55.3309 16.6419ZM47.9333 48.7221C46.2837 50.1435 44.2709 50.8179 42.2062 51.3159C38.1599 52.2808 34.0409 52.5194 29.9115 52.343C25.8237 52.5194 21.7877 52.2704 17.814 51.3263C14.8778 50.6415 12.201 49.4795 10.3438 46.9583C7.37652 42.9534 6.61913 35.3276 11.5266 31.1776C12.782 30.1193 14.1723 29.4449 15.822 29.3411C17.6376 29.227 19.4637 28.9988 21.2793 29.0195C25.8652 29.0714 30.4511 29.2996 35.0369 29.3411C37.1327 29.3515 39.2389 28.8639 41.3139 28.9988C43.2022 29.1129 45.1943 29.4656 46.9062 30.223C49.7594 31.4888 51.3053 34.0619 51.7722 37.0707C52.4569 41.532 51.5439 45.6095 47.9333 48.7221Z" fill="url(#paint0_linear)"/>
<path d="M40.4627 45.8482C42.8751 45.8482 44.8307 43.2329 44.8307 40.0069C44.8307 36.7809 42.8751 34.1656 40.4627 34.1656C38.0503 34.1656 36.0947 36.7809 36.0947 40.0069C36.0947 43.2329 38.0503 45.8482 40.4627 45.8482Z" fill="url(#paint1_linear)"/>
<path d="M19.6087 45.8482C22.0211 45.8482 23.9767 43.2329 23.9767 40.0069C23.9767 36.7809 22.0211 34.1656 19.6087 34.1656C17.1963 34.1656 15.2407 36.7809 15.2407 40.0069C15.2407 43.2329 17.1963 45.8482 19.6087 45.8482Z" fill="url(#paint2_linear)"/>
</g>
<defs>
<linearGradient id="paint0_linear" x1="30" y1="55.3692" x2="30" y2="4.63127" gradientUnits="userSpaceOnUse">
<stop stop-color="#3471FF"/>
<stop offset="1" stop-color="#C8D9FF"/>
</linearGradient>
<linearGradient id="paint1_linear" x1="40.4654" y1="45.843" x2="40.4654" y2="34.1609" gradientUnits="userSpaceOnUse">
<stop stop-color="#3471FF"/>
<stop offset="1" stop-color="#C8D9FF"/>
</linearGradient>
<linearGradient id="paint2_linear" x1="19.6116" y1="45.843" x2="19.6116" y2="34.1609" gradientUnits="userSpaceOnUse">
<stop stop-color="#3471FF"/>
<stop offset="1" stop-color="#C8D9FF"/>
</linearGradient>
<clipPath id="clip0">
<rect width="60" height="60" fill="white"/>
</clipPath>
</defs>
</svg>
